
<svg xmlns="http://www.w3.org/2000/svg" version="1.1" xmlns:xlink="http://www.w3.org/1999/xlink" preserveAspectRatio="none" x="0px" y="0px" width="145px" height="40px" viewBox="0 0 145 40">
<defs>
<g id="Layer0_0_FILL">
<path fill="#FFFFFF" stroke="none" d="
M 30.7 10.4
L 22.6 10.4 17.3 25.15 16.5 29.7 15.65 29.7 14.45 25.25 8.8 10.4 0 10.4 13.45 39.4 17.75 39.4 30.7 10.4
M 46.6 9.55
Q 43.15 9.55 40.5 10.55 37.8 11.6 35.95 13.6 32.3 17.6 32.3 24.75 32.3 28 33.15 30.8 33.95 33.55 35.75 35.6 36.65 36.6 37.75 37.4
L 40.2 38.8
Q 42.95 39.95 46.6 39.95 48.85 39.95 52.65 38.9 55.3 37.9 57.1 35.85 58.95 33.9 59.95 31.1 60.9 28.25 60.9 24.75 60.9 21.5 60 18.7 59.1 15.95 57.3 13.9 55.6 11.85 52.85 10.7 50.2 9.55 46.6 9.55
M 41.75 18.05
Q 42.65 17 43.85 16.5 45.05 15.95 46.6 15.95 48.35 15.95 49.6 16.6 50.85 17.25 51.65 18.45 52.45 19.65 52.8 21.25 53.15 22.85 53.15 24.75 53.15 33.55 46.6 33.55 44.8 33.55 43.55 32.8 42.35 32.1 41.55 30.95 40.75 29.75 40.35 28.15 40 26.55 40 24.75 40 20.1 41.75 18.05
M 84.45 7.15
Q 87.15 7.15 88.95 7.4 90.8 7.65 92.1 8.25
L 93.65 1.5
Q 92.1 0.9 89.7 0.45 87.35 0 83.8 0 80.65 0 77.35 1.05 74.05 2.1 71.4 4.45 68.7 6.75 66.95 10.55 66.15 12.45 65.7 14.85 65.25 17.15 65.25 19.95 65.25 22.65 65.65 24.9 66 27.25 66.75 29.1 68.3 32.85 70.8 35.3 72.15 36.5 73.55 37.35 75.05 38.25 76.7 38.8 80 39.9 83.6 39.9 86.65 39.9 89.6 39.35 92.5 38.75 94.3 37.45
L 92.7 31
Q 91.3 31.8 89.5 32.3 87.7 32.75 85.1 32.75 82.2 32.75 80.05 31.85 77.9 30.9 76.5 29.2 75.15 27.5 74.45 25.15 73.7 22.8 73.7 19.95 73.7 16.7 74.5 14.3 75.3 11.9 76.65 10.35 78.1 8.75 80 7.95 82 7.15 84.45 7.15
M 122.95 20
Q 122.95 17.65 122.45 15.8 121.95 13.9 120.8 12.6 119.55 11.25 117.6 10.55 115.55 9.8 112.6 9.8 108.85 9.8 105.3 10.55 101.8 11.25 99.35 12.35
L 101.35 18.15
Q 103.25 17.2 105.7 16.6 108.15 15.95 110.75 15.95 113.5 15.95 114.55 16.95 115.55 17.95 115.55 20
L 115.4 21.95 110.25 21.35
Q 103.8 21.35 100.6 23.9 97.4 26.35 97.4 31.2 97.4 33.05 98.05 34.55 98.7 36.1 99.9 37.2 101.15 38.35 102.8 38.95 104.55 39.55 106.55 39.55 109.95 39.55 112.1 38.2 114.25 36.8 115.65 34.9
L 116.3 34.9 117.55 39.15 123.7 39.15
Q 123.05 37.35 122.8 35.4
L 122.55 31.3 122.95 20
M 113.35 25.95
L 115.45 26.4 115.45 29.7
Q 114.75 31 113.25 32.2 111.75 33.45 109.2 33.45 107.35 33.45 106.2 32.45 105.1 31.4 105.1 29.5 105.1 27.9 106.5 26.8 107.95 25.75 110.85 25.75
L 113.35 25.95
M 138.45 0.8
L 130.95 0.8 130.95 33.45
Q 130.95 35.2 131.4 36.45 131.8 37.75 132.7 38.45 133.65 39.2 134.9 39.6 136.2 40 137.9 40 140.05 40 141.95 39.55
L 145 38.6 144.1 32.6 142.5 33.05 141.1 33.25
Q 138.45 33.25 138.45 29.05
L 138.45 0.8 Z"/>
</g>
</defs>

<g transform="matrix( 1, 0, 0, 1, 0,0) ">
<use xlink:href="#Layer0_0_FILL"/>
</g>
</svg>
